<svg width="180" height="180" fill="none" xmlns="http://www.w3.org/2000/svg"><path fill="#fff" d="M0 0h180v180H0z"/><path fill-rule="evenodd" clip-rule="evenodd" d="M38.014 37.998L90 16.465l51.986 21.533L163.526 90l-21.54 52.002L90 163.535l-51.986-21.533L16.474 90l21.54-52.002zM90 15l53.033 21.967L165 90l-21.967 53.033L90 165l-53.033-21.967L15 90l21.967-53.033L90 15zM79.925 75.038c-1.407-.292-3.141-.438-5.203-.438-3.371 0-6.415.649-9.131 1.946-2.684 1.297-4.795 3.13-6.333 5.497-1.538 2.335-2.307 5.027-2.307 8.076 0 3.146.753 5.935 2.258 8.368 1.505 2.432 3.6 4.329 6.284 5.691 2.716 1.33 5.793 1.995 9.229 1.995 1.93 0 3.633-.162 5.105-.487 1.506-.324 3.11-.891 4.811-1.702.197-.13.328-.243.393-.341.065-.097.114-.34.147-.729l.491-5.352c0-.097-.114-.146-.343-.146-.164 0-.246.033-.246.097-.884 2.66-2.16 4.638-3.83 5.936-1.668 1.297-3.844 1.946-6.528 1.946-2.52 0-4.86-.681-7.02-2.044-2.127-1.362-3.83-3.21-5.106-5.546-1.243-2.367-1.865-4.962-1.865-7.783 0-2.952.573-5.53 1.718-7.736 1.145-2.237 2.766-3.956 4.86-5.156 2.095-1.2 4.517-1.8 7.266-1.8 5.236 0 8.607 2.708 10.112 8.124.033.097.131.146.295.146.196-.032.294-.097.294-.195l-.589-5.789a6.592 6.592 0 00-.147-.73c-.033-.097-.164-.21-.393-.34-1.407-.714-2.814-1.216-4.222-1.508zm43.865 30.211c0-.195-.049-.292-.147-.292-1.243 0-2.16-.081-2.749-.243-.589-.163-.998-.471-1.227-.925-.197-.486-.295-1.216-.295-2.189V79.076c0-.973.098-1.687.295-2.14.229-.455.638-.763 1.227-.925.589-.195 1.506-.292 2.749-.292.098 0 .147-.097.147-.292 0-.195-.049-.292-.147-.292l-2.405.049a74.674 74.674 0 01-3.388.097c-.981 0-2.192-.032-3.632-.097l-2.308-.049c-.098 0-.147.097-.147.292 0 .195.049.292.147.292 1.277 0 2.21.097 2.799.292.589.194.981.535 1.178 1.021.229.455.343 1.168.343 2.141v10.022H97.38V79.173c0-.973.098-1.686.294-2.14.23-.487.638-.828 1.227-1.022.622-.195 1.555-.292 2.799-.292.065 0 .098-.097.098-.292 0-.195-.033-.292-.098-.292l-2.357.049a81.98 81.98 0 01-3.583.097c-.819 0-1.915-.032-3.29-.097l-2.503-.049c-.066 0-.098.097-.098.292 0 .195.032.292.098.292 1.243 0 2.16.097 2.749.292.589.162.982.47 1.178.924.23.454.344 1.168.344 2.14V101.6c0 .973-.115 1.703-.344 2.189-.196.454-.605.762-1.227.925-.59.162-1.506.243-2.75.243-.065 0-.097.097-.097.292 0 .194.032.292.098.292 1.047 0 1.865-.017 2.454-.049l3.388-.049 3.534.049c.59.032 1.391.049 2.406.049.065 0 .098-.098.098-.292 0-.195-.033-.292-.098-.292-1.277 0-2.21-.081-2.799-.243-.589-.163-.998-.471-1.227-.925-.196-.486-.294-1.216-.294-2.189V90.216h18.85V101.6c0 .973-.114 1.703-.343 2.189-.197.454-.589.762-1.178.925-.589.162-1.522.243-2.799.243-.098 0-.147.097-.147.292 0 .194.049.292.147.292.982 0 1.751-.017 2.308-.049l3.632-.049 3.388.049c.589.032 1.391.049 2.405.049.098 0 .147-.098.147-.292z" fill="#A87B62"/></svg>